Coordinates
version=1
nRows=49
nColumns=12
inDegrees=yes

Units are S.I. units (second, meters, Newtons, ...)
Angles are in degrees

endheader
time	SC_y	SC_z	SC_x	AC_y	AC_z	AC_x	GH_y	GH_z	GH_yy	EL_x	PS_y
       0.0              -17.93         0.3213          40.93          65.14         -1.426          7.254         -110.4          48.77          -17.6          103.8          106.6
   0.03536              -17.94         0.3221          40.93          65.14         -1.425          7.252         -110.4          48.77         -17.58          103.7          106.6
   0.07072              -17.94         0.3229          40.93          65.13         -1.423          7.249         -110.3          48.78         -17.55          103.7          106.6
    0.1061              -17.95         0.3238          40.94          65.13         -1.421          7.246         -110.3          48.78         -17.53          103.7          106.6
    0.1414              -17.96         0.3248          40.94          65.13          -1.42          7.243         -110.2          48.78          -17.5          103.7          106.6
    0.1768              -17.96         0.3258          40.94          65.12         -1.418          7.239         -110.2          48.79         -17.47          103.7          106.6
    0.2122              -17.97         0.3269          40.94          65.12         -1.416          7.235         -110.1          48.79         -17.44          103.7          106.6
    0.2475              -17.98          0.328          40.95          65.11         -1.414          7.231         -110.1           48.8         -17.41          103.7          106.6
    0.2829              -17.99         0.3293          40.95          65.11         -1.411          7.227         -110.0           48.8         -17.37          103.7          106.6
    0.3183               -18.0         0.3306          40.95           65.1         -1.409          7.223         -109.9          48.81         -17.33          103.7          106.6
    0.3536               -18.0          0.332          40.96           65.1         -1.406          7.218         -109.9          48.81         -17.29          103.7          106.6
     0.389              -18.02         0.3336          40.96          65.09         -1.404          7.212         -109.8          48.82         -17.25          103.7          106.6
    0.4243              -18.03         0.3352          40.97          65.08         -1.401          7.207         -109.7          48.82          -17.2          103.7          106.6
    0.4597              -18.04          0.337          40.97          65.08         -1.397          7.201         -109.6          48.83         -17.15          103.6          106.6
    0.4951              -18.05          0.339          40.97          65.07         -1.394          7.194         -109.5          48.84         -17.09          103.6          106.6
    0.5304              -18.07         0.3411          40.98          65.06          -1.39          7.187         -109.4          48.85         -17.03          103.6          106.6
    0.5658              -18.08         0.3434          40.99          65.05         -1.386          7.179         -109.3          48.86         -16.97          103.6          106.6
    0.6011               -18.1         0.3459          40.99          65.04         -1.381          7.171         -109.2          48.87          -16.9          103.6          106.6
    0.6365              -18.12         0.3486           41.0          65.03         -1.376          7.161         -109.1          48.88         -16.82          103.6          106.6
    0.6719              -18.14         0.3516          41.01          65.02         -1.371          7.151         -108.9          48.89         -16.73          103.6          106.6
    0.7072              -18.16         0.3548          41.01          65.01         -1.365           7.14         -108.7           48.9         -16.64          103.5          106.6
    0.7426              -18.18         0.3584          41.02          64.99         -1.358          7.128         -108.6          48.91         -16.54          103.5          106.5
     0.778              -18.21         0.3624          41.03          64.98         -1.351          7.114         -108.4          48.93         -16.42          103.5          106.5
    0.8133              -18.24         0.3668          41.04          64.96         -1.343          7.099         -108.1          48.95          -16.3          103.5          106.5
    0.8487              -18.28         0.3717          41.06          64.94         -1.334          7.082         -107.9          48.97         -16.16          103.4          106.5
     0.884              -18.31         0.3772          41.07          64.92         -1.324          7.064         -107.6          48.99          -16.0          103.4          106.5
    0.9194              -18.35         0.3833          41.09          64.89         -1.313          7.043         -107.3          49.01         -15.83          103.3          106.5
    0.9548               -18.4         0.3902           41.1          64.87           -1.3          7.019         -107.0          49.04         -15.63          103.3          106.5
    0.9901              -18.45          0.398          41.12          64.83         -1.286          6.993         -106.6          49.07         -15.41          103.2          106.5
     1.025              -18.52         0.4068          41.14           64.8          -1.27          6.962         -106.2           49.1         -15.15          103.2          106.5
     1.061              -18.58         0.4169          41.17          64.76         -1.251          6.928         -105.7          49.14         -14.87          103.1          106.5
     1.096              -18.66         0.4285           41.2          64.71          -1.23          6.889         -105.1          49.18         -14.53          103.0          106.5
     1.132              -18.75         0.4419          41.23          64.66         -1.206          6.843         -104.4          49.24         -14.15          103.0          106.5
     1.167              -18.86         0.4574          41.27           64.6         -1.178           6.79         -103.6           49.3         -13.71          102.8          106.5
     1.202              -18.98         0.4756          41.32          64.53         -1.144          6.728         -102.7          49.37         -13.19          102.7          106.4
     1.238              -19.13          0.497          41.37          64.44         -1.105          6.655         -101.7          49.45         -12.58          102.6          106.4
     1.273               -19.3         0.5225          41.43          64.34         -1.059          6.568         -100.4          49.55         -11.85          102.4          106.4
     1.308              -19.51          0.553          41.51          64.22         -1.003          6.464          -98.9          49.67         -10.98          102.2          106.4
     1.344              -19.76         0.5899           41.6          64.07        -0.9357          6.338         -97.07          49.81         -9.922          102.0          106.3
     1.379              -20.07          0.635          41.71          63.89        -0.8533          6.184         -94.82          49.98         -8.633          101.7          106.3
     1.414              -20.45         0.6907          41.85          63.67        -0.7517          5.994         -92.06           50.2         -7.042          101.3          106.2
      1.45              -20.92         0.7601          42.03          63.39         -0.625          5.757         -88.61          50.46         -5.058          100.8          106.2
     1.485              -21.52         0.8476          42.25          63.04        -0.4654          5.458         -84.27           50.8         -2.559          100.3          106.1
     1.521              -22.28         0.9587          42.52           62.6        -0.2625          5.079         -78.74          51.23         0.6176          99.52          106.0
     1.556              -23.25          1.101          42.88          62.04      -0.002733          4.593         -71.67          51.78          4.684          98.57          105.9
     1.591              -24.49          1.284          43.34          61.31         0.3306           3.97          -62.6          52.48          9.902          97.36          105.7
     1.627              -26.09          1.517          43.92          60.38         0.7563          3.174         -51.02          53.38          16.57          95.81          105.5
     1.662              -28.09           1.81          44.65          59.21          1.292          2.173         -36.45          54.52          24.95          93.86          105.2
     1.697              -30.52          2.168          45.55          57.79          1.944         0.9536         -18.69           55.9          35.16          91.48          104.9
